<?xml version="1.0" encoding="UTF-8" standalone="no"?>
<!DOCTYPE svg PUBLIC "-//W3C//DTD SVG 1.1//EN"
 "http://www.w3.org/Graphics/SVG/1.1/DTD/svg11.dtd">
<!-- Generated by graphviz version 2.38.0 (20140413.2041)
 -->
<!-- Title: snakemake_dag Pages: 1 -->
<svg width="337pt" height="260pt"
 viewBox="0.00 0.00 337.00 260.00" xmlns="http://www.w3.org/2000/svg" xmlns:xlink="http://www.w3.org/1999/xlink">
<g id="graph0" class="graph" transform="scale(1 1) rotate(0) translate(4 256)">
<title>snakemake_dag</title>
<polygon fill="white" stroke="none" points="-4,4 -4,-256 333,-256 333,4 -4,4"/>
<!-- 0 -->
<g id="node1" class="node"><title>0</title>
<path fill="none" stroke="#d6d856" stroke-width="2" d="M179,-36C179,-36 89,-36 89,-36 83,-36 77,-30 77,-24 77,-24 77,-12 77,-12 77,-6 83,-0 89,-0 89,-0 179,-0 179,-0 185,-0 191,-6 191,-12 191,-12 191,-24 191,-24 191,-30 185,-36 179,-36"/>
<text text-anchor="middle" x="134" y="-15.5" font-family="sans" font-size="10.00">bcftools_call</text>
</g>
<!-- 1 -->
<g id="node2" class="node"><title>1</title>
<path fill="none" stroke="#56d8d8" stroke-width="2" d="M102,-180C102,-180 12,-180 12,-180 6,-180 0,-174 0,-168 0,-168 0,-156 0,-156 0,-150 6,-144 12,-144 12,-144 102,-144 102,-144 108,-144 114,-150 114,-156 114,-156 114,-168 114,-168 114,-174 108,-180 102,-180"/>
<text text-anchor="middle" x="57" y="-159.5" font-family="sans" font-size="10.00">samtools_sort</text>
</g>
<!-- 1&#45;&gt;0 -->
<g id="edge1" class="edge"><title>1&#45;&gt;0</title>
<path fill="none" stroke="grey" stroke-width="2" d="M40.3808,-143.743C24.5773,-125.155 5.2417,-95.1366 20,-72 30.8947,-54.9203 48.8754,-43.2586 67.3716,-35.3313"/>
<polygon fill="grey" stroke="grey" stroke-width="2" points="68.7429,-38.5528 76.7588,-31.625 66.1722,-32.042 68.7429,-38.5528"/>
</g>
<!-- 3 -->
<g id="node4" class="node"><title>3</title>
<path fill="none" stroke="#d85656" stroke-width="2" d="M139,-108C139,-108 41,-108 41,-108 35,-108 29,-102 29,-96 29,-96 29,-84 29,-84 29,-78 35,-72 41,-72 41,-72 139,-72 139,-72 145,-72 151,-78 151,-84 151,-84 151,-96 151,-96 151,-102 145,-108 139,-108"/>
<text text-anchor="middle" x="90" y="-87.5" font-family="sans" font-size="10.00">samtools_index</text>
</g>
<!-- 1&#45;&gt;3 -->
<g id="edge7" class="edge"><title>1&#45;&gt;3</title>
<path fill="none" stroke="grey" stroke-width="2" d="M65.1573,-143.697C68.9138,-135.728 73.4531,-126.1 77.6183,-117.264"/>
<polygon fill="grey" stroke="grey" stroke-width="2" points="80.8381,-118.642 81.9365,-108.104 74.5064,-115.657 80.8381,-118.642"/>
</g>
<!-- 2 -->
<g id="node3" class="node"><title>2</title>
<path fill="none" stroke="#56d8d8" stroke-width="2" d="M257,-180C257,-180 167,-180 167,-180 161,-180 155,-174 155,-168 155,-168 155,-156 155,-156 155,-150 161,-144 167,-144 167,-144 257,-144 257,-144 263,-144 269,-150 269,-156 269,-156 269,-168 269,-168 269,-174 263,-180 257,-180"/>
<text text-anchor="middle" x="212" y="-159.5" font-family="sans" font-size="10.00">samtools_sort</text>
</g>
<!-- 2&#45;&gt;0 -->
<g id="edge2" class="edge"><title>2&#45;&gt;0</title>
<path fill="none" stroke="grey" stroke-width="2" d="M202.591,-143.871C189.122,-119.35 164.229,-74.0321 148.424,-45.2589"/>
<polygon fill="grey" stroke="grey" stroke-width="2" points="151.324,-43.269 143.442,-36.1893 145.189,-46.6391 151.324,-43.269"/>
</g>
<!-- 4 -->
<g id="node5" class="node"><title>4</title>
<path fill="none" stroke="#d85656" stroke-width="2" d="M317,-108C317,-108 219,-108 219,-108 213,-108 207,-102 207,-96 207,-96 207,-84 207,-84 207,-78 213,-72 219,-72 219,-72 317,-72 317,-72 323,-72 329,-78 329,-84 329,-84 329,-96 329,-96 329,-102 323,-108 317,-108"/>
<text text-anchor="middle" x="268" y="-87.5" font-family="sans" font-size="10.00">samtools_index</text>
</g>
<!-- 2&#45;&gt;4 -->
<g id="edge8" class="edge"><title>2&#45;&gt;4</title>
<path fill="none" stroke="grey" stroke-width="2" d="M225.843,-143.697C232.489,-135.389 240.578,-125.277 247.887,-116.141"/>
<polygon fill="grey" stroke="grey" stroke-width="2" points="250.803,-118.099 254.317,-108.104 245.336,-113.727 250.803,-118.099"/>
</g>
<!-- 3&#45;&gt;0 -->
<g id="edge3" class="edge"><title>3&#45;&gt;0</title>
<path fill="none" stroke="grey" stroke-width="2" d="M100.876,-71.6966C105.992,-63.5589 112.195,-53.689 117.845,-44.7013"/>
<polygon fill="grey" stroke="grey" stroke-width="2" points="120.89,-46.4333 123.249,-36.1043 114.964,-42.7081 120.89,-46.4333"/>
</g>
<!-- 4&#45;&gt;0 -->
<g id="edge4" class="edge"><title>4&#45;&gt;0</title>
<path fill="none" stroke="grey" stroke-width="2" d="M235.22,-71.8761C217.375,-62.5541 195.103,-50.9194 175.997,-40.939"/>
<polygon fill="grey" stroke="grey" stroke-width="2" points="177.39,-37.7178 166.906,-36.1898 174.149,-43.9222 177.39,-37.7178"/>
</g>
<!-- 5 -->
<g id="node6" class="node"><title>5</title>
<path fill="none" stroke="#59d856" stroke-width="2" d="M87,-252C87,-252 27,-252 27,-252 21,-252 15,-246 15,-240 15,-240 15,-228 15,-228 15,-222 21,-216 27,-216 27,-216 87,-216 87,-216 93,-216 99,-222 99,-228 99,-228 99,-240 99,-240 99,-246 93,-252 87,-252"/>
<text text-anchor="middle" x="57" y="-237" font-family="sans" font-size="10.00">bwa_map</text>
<text text-anchor="middle" x="57" y="-226" font-family="sans" font-size="10.00">sample: A</text>
</g>
<!-- 5&#45;&gt;1 -->
<g id="edge5" class="edge"><title>5&#45;&gt;1</title>
<path fill="none" stroke="grey" stroke-width="2" d="M57,-215.697C57,-207.983 57,-198.712 57,-190.112"/>
<polygon fill="grey" stroke="grey" stroke-width="2" points="60.5001,-190.104 57,-180.104 53.5001,-190.104 60.5001,-190.104"/>
</g>
<!-- 6 -->
<g id="node7" class="node"><title>6</title>
<path fill="none" stroke="#59d856" stroke-width="2" d="M242,-252C242,-252 182,-252 182,-252 176,-252 170,-246 170,-240 170,-240 170,-228 170,-228 170,-222 176,-216 182,-216 182,-216 242,-216 242,-216 248,-216 254,-222 254,-228 254,-228 254,-240 254,-240 254,-246 248,-252 242,-252"/>
<text text-anchor="middle" x="212" y="-237" font-family="sans" font-size="10.00">bwa_map</text>
<text text-anchor="middle" x="212" y="-226" font-family="sans" font-size="10.00">sample: B</text>
</g>
<!-- 6&#45;&gt;2 -->
<g id="edge6" class="edge"><title>6&#45;&gt;2</title>
<path fill="none" stroke="grey" stroke-width="2" d="M212,-215.697C212,-207.983 212,-198.712 212,-190.112"/>
<polygon fill="grey" stroke="grey" stroke-width="2" points="215.5,-190.104 212,-180.104 208.5,-190.104 215.5,-190.104"/>
</g>
</g>
</svg>
