<?xml version="1.0" encoding="UTF-8" standalone="no"?>
<!DOCTYPE svg PUBLIC "-//W3C//DTD SVG 1.1//EN"
 "http://www.w3.org/Graphics/SVG/1.1/DTD/svg11.dtd">
<!-- Generated by graphviz version 2.38.0 (20140413.2041)
 -->
<!-- Title: snakemake_dag Pages: 1 -->
<svg width="270pt" height="188pt"
 viewBox="0.00 0.00 270.00 188.00" xmlns="http://www.w3.org/2000/svg" xmlns:xlink="http://www.w3.org/1999/xlink">
<g id="graph0" class="graph" transform="scale(1 1) rotate(0) translate(4 184)">
<title>snakemake_dag</title>
<polygon fill="white" stroke="none" points="-4,4 -4,-184 266,-184 266,4 -4,4"/>
<!-- 0 -->
<g id="node1" class="node"><title>0</title>
<path fill="none" stroke="#afd856" stroke-width="2" d="M110,-36C110,-36 12,-36 12,-36 6,-36 -7.10543e-15,-30 -7.10543e-15,-24 -7.10543e-15,-24 -7.10543e-15,-12 -7.10543e-15,-12 -7.10543e-15,-6 6,-0 12,-0 12,-0 110,-0 110,-0 116,-0 122,-6 122,-12 122,-12 122,-24 122,-24 122,-30 116,-36 110,-36"/>
<text text-anchor="middle" x="61" y="-15.5" font-family="sans" font-size="10.00">samtools_index</text>
</g>
<!-- 1 -->
<g id="node2" class="node"><title>1</title>
<path fill="none" stroke="#afd856" stroke-width="2" d="M250,-36C250,-36 152,-36 152,-36 146,-36 140,-30 140,-24 140,-24 140,-12 140,-12 140,-6 146,-0 152,-0 152,-0 250,-0 250,-0 256,-0 262,-6 262,-12 262,-12 262,-24 262,-24 262,-30 256,-36 250,-36"/>
<text text-anchor="middle" x="201" y="-15.5" font-family="sans" font-size="10.00">samtools_index</text>
</g>
<!-- 2 -->
<g id="node3" class="node"><title>2</title>
<path fill="none" stroke="#d85656" stroke-width="2" d="M106,-108C106,-108 16,-108 16,-108 10,-108 4,-102 4,-96 4,-96 4,-84 4,-84 4,-78 10,-72 16,-72 16,-72 106,-72 106,-72 112,-72 118,-78 118,-84 118,-84 118,-96 118,-96 118,-102 112,-108 106,-108"/>
<text text-anchor="middle" x="61" y="-87.5" font-family="sans" font-size="10.00">samtools_sort</text>
</g>
<!-- 2&#45;&gt;0 -->
<g id="edge1" class="edge"><title>2&#45;&gt;0</title>
<path fill="none" stroke="grey" stroke-width="2" d="M61,-71.6966C61,-63.9827 61,-54.7125 61,-46.1124"/>
<polygon fill="grey" stroke="grey" stroke-width="2" points="64.5001,-46.1043 61,-36.1043 57.5001,-46.1044 64.5001,-46.1043"/>
</g>
<!-- 3 -->
<g id="node4" class="node"><title>3</title>
<path fill="none" stroke="#d85656" stroke-width="2" d="M246,-108C246,-108 156,-108 156,-108 150,-108 144,-102 144,-96 144,-96 144,-84 144,-84 144,-78 150,-72 156,-72 156,-72 246,-72 246,-72 252,-72 258,-78 258,-84 258,-84 258,-96 258,-96 258,-102 252,-108 246,-108"/>
<text text-anchor="middle" x="201" y="-87.5" font-family="sans" font-size="10.00">samtools_sort</text>
</g>
<!-- 3&#45;&gt;1 -->
<g id="edge2" class="edge"><title>3&#45;&gt;1</title>
<path fill="none" stroke="grey" stroke-width="2" d="M201,-71.6966C201,-63.9827 201,-54.7125 201,-46.1124"/>
<polygon fill="grey" stroke="grey" stroke-width="2" points="204.5,-46.1043 201,-36.1043 197.5,-46.1044 204.5,-46.1043"/>
</g>
<!-- 4 -->
<g id="node5" class="node"><title>4</title>
<path fill="none" stroke="#56d8a9" stroke-width="2" d="M91,-180C91,-180 31,-180 31,-180 25,-180 19,-174 19,-168 19,-168 19,-156 19,-156 19,-150 25,-144 31,-144 31,-144 91,-144 91,-144 97,-144 103,-150 103,-156 103,-156 103,-168 103,-168 103,-174 97,-180 91,-180"/>
<text text-anchor="middle" x="61" y="-165" font-family="sans" font-size="10.00">bwa_map</text>
<text text-anchor="middle" x="61" y="-154" font-family="sans" font-size="10.00">sample: A</text>
</g>
<!-- 4&#45;&gt;2 -->
<g id="edge3" class="edge"><title>4&#45;&gt;2</title>
<path fill="none" stroke="grey" stroke-width="2" d="M61,-143.697C61,-135.983 61,-126.712 61,-118.112"/>
<polygon fill="grey" stroke="grey" stroke-width="2" points="64.5001,-118.104 61,-108.104 57.5001,-118.104 64.5001,-118.104"/>
</g>
<!-- 5 -->
<g id="node6" class="node"><title>5</title>
<path fill="none" stroke="#56d8a9" stroke-width="2" d="M231,-180C231,-180 171,-180 171,-180 165,-180 159,-174 159,-168 159,-168 159,-156 159,-156 159,-150 165,-144 171,-144 171,-144 231,-144 231,-144 237,-144 243,-150 243,-156 243,-156 243,-168 243,-168 243,-174 237,-180 231,-180"/>
<text text-anchor="middle" x="201" y="-165" font-family="sans" font-size="10.00">bwa_map</text>
<text text-anchor="middle" x="201" y="-154" font-family="sans" font-size="10.00">sample: B</text>
</g>
<!-- 5&#45;&gt;3 -->
<g id="edge4" class="edge"><title>5&#45;&gt;3</title>
<path fill="none" stroke="grey" stroke-width="2" d="M201,-143.697C201,-135.983 201,-126.712 201,-118.112"/>
<polygon fill="grey" stroke="grey" stroke-width="2" points="204.5,-118.104 201,-108.104 197.5,-118.104 204.5,-118.104"/>
</g>
</g>
</svg>
